# xmcd
#
# Track frame offsets:
#	150
#	15662
#	27397
#	38740
#	52195
#	69462
#	84962
#	99177
#	111637
#	123790
#	137437
#	153242
#	166722
#	179032
#
# Disc length: 2631 seconds
#
# Revision: 2
# Processed by: cddbd v1.5.2PL0 Copyright (c) Steve Scherf et al.
# Submitted via: EasyCDDAExtractor 16.0.6.1
#
DISCID=ae0a450e
DTITLE=Λεάνδρου Βίκυ - Βίκυ Λέανδρος
DYEAR=1996
DGENRE=Ελαφρολαϊκή
TTITLE0=Ήταν μιά βραδιά [Mario Panas, Kl. Munro, R. Arnie, Νίκος Ελληναίος]
TTITLE1=Χαμένη αγάπη [Mario Panas, Νίκος Ελληναίος]
TTITLE2=Κακομαθημένο παιδί (Saint Tropez)[Mario Panas, R. Arnie, Νίκος Ελληναί
TTITLE2=ος]
TTITLE3=Έϊ καζανόβα [Mario Panas, Kl. Munro, Σέβη Τηλιακού]
TTITLE4=Η λίμνη [M. Shuman, E. Roda-Gil, Νίκος Ελληναίος]
TTITLE5=Τα καινούργια χελιδόνια [Leo Leandros, Kl. Munro, R. Arnie, Ν. Ελληναί
TTITLE5=ος]
TTITLE6=Η ματιά σου στην ματιά μου [Mario Panas, Kl. Munro, Νίκος Ελληναίος]
TTITLE7=Τώρα γυρίζω [Mario Panas, Νίκος Ελληναίος]
TTITLE8=Όταν φτάσεις στην Αθήνα [Mario Panas, R. Arnie, Λ. Παπαδόπουλος]]
TTITLE9=Η εκδρομή [Mario Panas, Kl. Munro, Νίκος Ελληναίος]
TTITLE10=Κουτό παιδί [Mario Panas, R. Arnie, Σέβη Τηλιακού]
TTITLE11=Σε είδα μ' άλλη να περνάς [Mario Panas, R. Arnie, Σέβη Τηλιακού]
TTITLE12=Ζω στην σκιά σου [Mario Panas, Νίκος Ελληναίος]
TTITLE13=Όμορφα χρόνια [Leo Leandros, Kl. Munro, Σέβη Τηλιακού]
EXTD=YEAR: 1996
EXTT0=
EXTT1=
EXTT2=
EXTT3=
EXTT4=
EXTT5=
EXTT6=
EXTT7=
EXTT8=
EXTT9=
EXTT10=
EXTT11=
EXTT12=
EXTT13=
PLAYORDER=
